<?xml version="1.0" standalone="no"?>
<!DOCTYPE svg PUBLIC "-//W3C//DTD SVG 20010904//EN"
 "http://www.w3.org/TR/2001/REC-SVG-20010904/DTD/svg10.dtd">
<svg version="1.0" xmlns="http://www.w3.org/2000/svg"
 width="1200.000000pt" height="867.000000pt" viewBox="0 0 1200.000000 867.000000"
 preserveAspectRatio="xMidYMid meet">

<g transform="translate(0.000000,867.000000) scale(0.100000,-0.100000)"
fill="#000000" stroke="none">
<path d="M0 4335 l0 -4335 6000 0 6000 0 0 4335 0 4335 -6000 0 -6000 0 0
-4335z m8950 3675 c116 -22 219 -106 258 -213 l22 -58 -2 -3417 -3 -3417 -22
-47 c-26 -58 -93 -132 -147 -163 -23 -13 -69 -29 -103 -35 -150 -30 -297 43
-371 183 l-27 52 0 3440 0 3440 27 51 c46 87 129 157 216 180 59 16 86 17 152
4z m-5717 -326 c60 -20 150 -101 185 -168 l27 -51 0 -3130 0 -3130 -28 -53
c-90 -172 -291 -236 -464 -150 -62 31 -137 116 -162 183 l-21 56 0 3094 c0
3087 0 3094 20 3149 23 61 85 136 142 172 84 54 192 64 301 28z m7704 -686
c42 -15 75 -38 120 -83 52 -53 64 -72 82 -131 l21 -69 -2 -2405 -3 -2405 -27
-57 c-125 -268 -501 -268 -626 0 l-27 57 -3 2395 c-1 1644 1 2411 8 2446 43
206 260 326 457 252z m-5762 -192 c95 -43 161 -119 189 -217 15 -49 16 -269
14 -2279 l-3 -2225 -28 -55 c-39 -75 -98 -133 -171 -166 -86 -40 -196 -40
-279 -2 -75 35 -149 111 -179 185 l-23 58 0 2230 0 2230 23 58 c39 96 137 181
239 207 56 14 161 2 218 -24z m-3852 -185 c69 -30 139 -100 173 -174 l29 -62
3 -2024 c2 -2200 5 -2089 -51 -2178 -33 -52 -100 -111 -156 -137 -36 -16 -65
-21 -136 -21 -78 0 -98 4 -147 28 -82 40 -152 120 -178 204 -20 64 -20 86 -20
2072 0 2180 -3 2070 54 2158 22 35 66 80 107 111 10 7 41 22 70 33 68 25 181
21 252 -10z m5787 -565 c107 -54 169 -138 190 -257 8 -45 10 -497 8 -1509 l-3
-1445 -27 -57 c-35 -76 -98 -142 -167 -175 -49 -24 -68 -28 -146 -28 -76 0
-98 4 -145 26 -69 33 -133 97 -168 169 l-27 55 -3 1470 c-2 1053 0 1485 8
1522 14 66 75 160 127 196 74 51 130 68 218 64 63 -3 92 -9 135 -31z"/>
</g>
</svg>
